<svg width="24" height="24" viewBox="0 0 24 24" fill="none" xmlns="http://www.w3.org/2000/svg">
<path d="M4.40434 13.6099C3.51517 13.1448 3 12.5924 3 12C3 10.3431 7.02944 9 12 9C16.9706 9 21 10.3431 21 12C21 12.7144 20.2508 13.3705 19 13.8858" stroke="currentColor" stroke-width="1.5" stroke-linecap="round" stroke-linejoin="round"/>
<path d="M12 11.01L12.01 10.9989" stroke="currentColor" stroke-width="1.5" stroke-linecap="round" stroke-linejoin="round"/>
<path d="M16.8823 6C16.8775 4.97702 16.6194 4.25309 16.0851 3.98084C14.6088 3.22864 11.5827 6.20912 9.32615 10.6379C7.06956 15.0667 6.43699 19.2668 7.91325 20.019C8.44068 20.2877 9.16593 20.08 9.98323 19.5" stroke="currentColor" stroke-width="1.5" stroke-linecap="round" stroke-linejoin="round"/>
<path d="M9.60031 4.25164C8.93995 3.86579 8.35657 3.75489 7.91308 3.98086C6.43681 4.73306 7.06938 8.93309 9.32597 13.3619C11.5826 17.7907 14.6086 20.7712 16.0849 20.019C17.3971 19.3504 17.0431 15.9577 15.3635 12.1016" stroke="currentColor" stroke-width="1.5" stroke-linecap="round" stroke-linejoin="round"/>
</svg>
