<svg width="24" height="24" viewBox="0 0 24 24" fill="none" xmlns="http://www.w3.org/2000/svg">
<path d="M13.8062 5L12.8152 3.00376C12.4817 2.33208 11.5184 2.33208 11.185 3.00376L10.6895 4.00188" stroke="currentColor" stroke-width="1.5" stroke-linecap="round" stroke-linejoin="round"/>
<path d="M15.0117 7.427L15.4133 8.23599L16.8656 8.44704" stroke="currentColor" stroke-width="1.5" stroke-linecap="round" stroke-linejoin="round"/>
<path d="M19.7695 8.86914L21.2217 9.08019C21.967 9.1885 22.2641 10.0994 21.7245 10.6219L20.6739 11.6394" stroke="currentColor" stroke-width="1.5" stroke-linecap="round" stroke-linejoin="round"/>
<path d="M18.5721 13.6743L17.5215 14.6918L17.7694 16.1292" stroke="currentColor" stroke-width="1.5" stroke-linecap="round" stroke-linejoin="round"/>
<path d="M18.2642 19.0039L18.5122 20.4413C18.6395 21.1797 17.86 21.7427 17.1932 21.394L15.8945 20.715" stroke="currentColor" stroke-width="1.5" stroke-linecap="round" stroke-linejoin="round"/>
<path d="M10.4277 19.5L11.9998 18.678L13.2985 19.357" stroke="currentColor" stroke-width="1.5" stroke-linecap="round" stroke-linejoin="round"/>
<path d="M5.67145 19.3689L5.48645 20.4414C5.35908 21.1797 6.13859 21.7428 6.80546 21.3941L7.65273 20.9511" stroke="currentColor" stroke-width="1.5" stroke-linecap="round" stroke-linejoin="round"/>
<path d="M6.25241 16L6.47808 14.6917L5.7832 14.0188" stroke="currentColor" stroke-width="1.5" stroke-linecap="round" stroke-linejoin="round"/>
<path d="M3.69875 12L2.27575 10.6219C1.73617 10.0993 2.03322 9.18844 2.77852 9.08012L3.88926 8.9187" stroke="currentColor" stroke-width="1.5" stroke-linecap="round" stroke-linejoin="round"/>
<path d="M7 8.4666L8.58737 8.23591L9.39062 6.61792" stroke="currentColor" stroke-width="1.5" stroke-linecap="round" stroke-linejoin="round"/>
</svg>
