<svg width="24" height="24" viewBox="0 0 24 24" fill="none" xmlns="http://www.w3.org/2000/svg">
<path d="M6.27049 6.5C6.09277 7.10971 6 7.74975 6 8.4C6 15.8667 3 18 3 18H18" stroke="currentColor" stroke-width="1.5" stroke-linecap="round" stroke-linejoin="round"/>
<path d="M7.75781 3.87452C8.88303 2.67428 10.4092 2 12.0005 2C13.5918 2 15.1179 2.67428 16.2431 3.87452C17.3683 5.07475 18.0005 6.70261 18.0005 8.4C18.0005 15.8667 21.0005 18 21.0005 18" stroke="currentColor" stroke-width="1.5" stroke-linecap="round" stroke-linejoin="round"/>
<path d="M13.7295 21C13.5537 21.3031 13.3014 21.5547 12.9978 21.7295C12.6941 21.9044 12.3499 21.9965 11.9995 21.9965C11.6492 21.9965 11.3049 21.9044 11.0013 21.7295C10.6977 21.5547 10.4453 21.3031 10.2695 21" stroke="currentColor" stroke-width="1.5" stroke-linecap="round" stroke-linejoin="round"/>
<path d="M3 3L21 21" stroke="currentColor" stroke-width="1.5" stroke-linecap="round" stroke-linejoin="round"/>
</svg>
