<svg width="24" height="24" viewBox="0 0 24 24" fill="none" xmlns="http://www.w3.org/2000/svg">
<path d="M2 16V8C2 4.68629 4.68629 2 8 2H16C19.3137 2 22 4.68629 22 8V16C22 19.3137 19.3137 22 16 22H8C4.68629 22 2 19.3137 2 16Z" stroke="currentColor" stroke-width="1.5"/>
<path d="M6 13V11C6 9.89543 6.89543 9 8 9H11C12.1046 9 13 9.89543 13 11V13C13 14.1046 12.1046 15 11 15H8C6.89543 15 6 14.1046 6 13Z" stroke="currentColor" stroke-width="1.5"/>
<path d="M17.0406 9.22L13.974 11.52C13.654 11.76 13.654 12.24 13.974 12.48L17.0407 14.78C17.4362 15.0767 18.0007 14.7944 18.0007 14.3V9.7C18.0007 9.20557 17.4362 8.92334 17.0406 9.22Z" stroke="currentColor" stroke-width="1.5" stroke-linecap="round" stroke-linejoin="round"/>
</svg>
