<svg width="24" height="24" viewBox="0 0 24 24" fill="none" xmlns="http://www.w3.org/2000/svg">
<path d="M9.87868 14.1218C11.0503 15.2934 12.9497 15.2934 14.1213 14.1218C15.2929 12.9502 15.2929 11.0507 14.1213 9.87913C12.9497 8.70756 11.0503 8.70756 9.87868 9.87913C8.70711 11.0507 8.7071 12.9502 9.87868 14.1218Z" stroke="currentColor" stroke-width="1.5" stroke-miterlimit="1.5" stroke-linecap="round" stroke-linejoin="round"/>
<path d="M4.36979 16.7726C4.09034 16.3274 3.84782 15.8547 3.64889 15.3612C3.23019 14.323 3 13.1891 3 12.0012C3 7.7649 5.93373 4.20879 9.87822 3.25392C10.5584 3.0891 11.2689 3.00195 11.9992 3.00195" stroke="currentColor" stroke-width="1.49671" stroke-miterlimit="1.5" stroke-linecap="round" stroke-linejoin="round"/>
<path d="M19.7147 7.3667C20.5303 8.72132 20.9992 10.3061 20.9992 12.0008C20.9992 15.807 18.631 19.0638 15.2899 20.3786C14.2706 20.7793 13.1604 21 12 21" stroke="currentColor" stroke-width="1.49671" stroke-miterlimit="1.5" stroke-linecap="round" stroke-linejoin="round"/>
<path fill-rule="evenodd" clip-rule="evenodd" d="M14.1206 9.87918C14.1206 9.87918 14.1114 7.07691 15.5349 5.63653C16.9448 4.22798 18.3286 2.77204 19.7775 4.22232C21.1542 5.60047 19.7923 7.03166 18.3633 8.46496C16.9618 9.87069 14.1206 9.87918 14.1206 9.87918Z" stroke="currentColor" stroke-width="1.5" stroke-miterlimit="1.5" stroke-linecap="round" stroke-linejoin="round"/>
<path fill-rule="evenodd" clip-rule="evenodd" d="M9.87936 14.1208C9.87936 14.1208 9.88855 16.9231 8.46515 18.3635C7.05518 19.772 5.67137 21.228 4.2225 19.7777C2.84577 18.3995 4.20766 16.9683 5.63672 15.535C7.03821 14.1293 9.87936 14.1208 9.87936 14.1208Z" stroke="currentColor" stroke-width="1.5" stroke-miterlimit="1.5" stroke-linecap="round" stroke-linejoin="round"/>
</svg>
