<svg width="24" height="24" viewBox="0 0 24 24" fill="none" xmlns="http://www.w3.org/2000/svg">
<path d="M14.1198 14.1213C15.2914 12.9497 15.2914 11.0502 14.1198 9.87862C12.9482 8.70705 11.0487 8.70705 9.87718 9.87862C8.70561 11.0502 8.70561 12.9497 9.87718 14.1213C11.0487 15.2928 12.9482 15.2928 14.1198 14.1213Z" stroke="currentColor" stroke-width="1.5" stroke-miterlimit="1.5" stroke-linecap="round" stroke-linejoin="round"/>
<path fill-rule="evenodd" clip-rule="evenodd" d="M9.87771 9.87869C9.87771 9.87869 7.07544 9.88788 5.63507 8.46447C4.22651 7.0545 2.77058 5.6707 4.22085 4.22183C5.59901 2.8451 7.03019 4.20698 8.4635 5.63605C9.86922 7.03753 9.87771 9.87869 9.87771 9.87869Z" stroke="currentColor" stroke-width="1.5" stroke-miterlimit="1.5" stroke-linecap="round" stroke-linejoin="round"/>
<path fill-rule="evenodd" clip-rule="evenodd" d="M14.1206 9.87868C14.1206 9.87868 14.1114 7.07642 15.5349 5.63604C16.9448 4.22749 18.3286 2.77156 19.7775 4.22183C21.1542 5.59998 19.7923 7.03117 18.3633 8.46447C16.9618 9.8702 14.1206 9.87868 14.1206 9.87868Z" stroke="currentColor" stroke-width="1.5" stroke-miterlimit="1.5" stroke-linecap="round" stroke-linejoin="round"/>
<path fill-rule="evenodd" clip-rule="evenodd" d="M9.87936 14.1213C9.87936 14.1213 9.88855 16.9236 8.46515 18.364C7.05518 19.7725 5.67137 21.2284 4.22251 19.7782C2.84577 18.4 4.20766 16.9688 5.63672 15.5355C7.0382 14.1298 9.87936 14.1213 9.87936 14.1213Z" stroke="currentColor" stroke-width="1.5" stroke-miterlimit="1.5" stroke-linecap="round" stroke-linejoin="round"/>
<path fill-rule="evenodd" clip-rule="evenodd" d="M14.1223 14.1213C14.1223 14.1213 16.9246 14.1121 18.3649 15.5355C19.7735 16.9455 21.2294 18.3293 19.7791 19.7782C18.401 21.1549 16.9698 19.793 15.5365 18.364C14.1308 16.9625 14.1223 14.1213 14.1223 14.1213Z" stroke="currentColor" stroke-width="1.5" stroke-miterlimit="1.5" stroke-linecap="round" stroke-linejoin="round"/>
</svg>
