<svg width="24" height="24" viewBox="0 0 24 24" fill="none" xmlns="http://www.w3.org/2000/svg">
<path d="M20 12V5.74853C20 5.5894 19.9368 5.43679 19.8243 5.32426L16.6757 2.17574C16.5632 2.06321 16.4106 2 16.2515 2H4.6C4.26863 2 4 2.26863 4 2.6V21.4C4 21.7314 4.26863 22 4.6 22H11" stroke="currentColor" stroke-width="1.5" stroke-linecap="round" stroke-linejoin="round"/>
<path d="M8 10H16M8 6H12M8 14H11" stroke="currentColor" stroke-width="1.5" stroke-linecap="round" stroke-linejoin="round"/>
<path d="M17.9533 16.9394L18.9534 15.9394C19.3913 15.5015 20.1012 15.5015 20.5391 15.9394V15.9394C20.977 16.3773 20.977 17.0873 20.5391 17.5252L19.5391 18.5252M17.9533 16.9394L14.9623 19.9305C14.8124 20.0804 14.714 20.2741 14.6813 20.4835L14.4386 22.0399L15.9949 21.7973C16.2044 21.7646 16.3981 21.6662 16.548 21.5163L19.5391 18.5252M17.9533 16.9394L19.5391 18.5252" stroke="currentColor" stroke-width="1.5" stroke-linecap="round" stroke-linejoin="round"/>
<path d="M16 2V5.4C16 5.73137 16.2686 6 16.6 6H20" stroke="currentColor" stroke-width="1.5" stroke-linecap="round" stroke-linejoin="round"/>
</svg>
