<svg width="24" height="24" viewBox="0 0 24 24" fill="none" xmlns="http://www.w3.org/2000/svg">
<path d="M22.0034 3V7.49704C22.0034 7.77482 21.7782 8 21.5004 8V8C21.3005 8 21.1206 7.88104 21.0345 7.70059C19.4268 4.32948 15.9871 2 12.0034 2C6.81801 2 2.55446 5.94668 2.05273 11" stroke="currentColor" stroke-width="1.5" stroke-linecap="round" stroke-linejoin="round"/>
<path d="M17 9.99999L17 15C17 16.1046 16.1046 17 15 17H9C7.89543 17 7 16.1046 7 15V10C7 8.89543 7.89543 8 9 8H15C16.1045 8 17 8.89543 17 9.99999Z" stroke="currentColor" stroke-width="1.5" stroke-linecap="round" stroke-linejoin="round"/>
<path d="M12 11L12 8" stroke="currentColor" stroke-width="1.5" stroke-linecap="round" stroke-linejoin="round"/>
<path d="M2.05133 21V16.503C2.05133 16.2252 2.27651 16 2.55429 16V16C2.75421 16 2.93412 16.119 3.02018 16.2994C4.62792 19.6705 8.06758 22 12.0513 22C17.2367 22 21.5002 18.0533 22.002 13" stroke="currentColor" stroke-width="1.5" stroke-linecap="round" stroke-linejoin="round"/>
</svg>
