<svg width="24" height="24" viewBox="0 0 24 24" fill="none" xmlns="http://www.w3.org/2000/svg">
<path d="M21.9991 7C21.9991 7 22.4992 3 17.9991 3C13.499 3 13.9991 7 13.9991 7M21.9991 7H13.9991M21.9991 7L21.7848 10M13.9991 7L14.2134 10M21.7848 10L21.1981 18.2137C21.086 19.7837 19.7797 21 18.2057 21H17.7925C16.2185 21 14.9122 19.7837 14.8001 18.2137L14.2134 10M21.7848 10H14.2134" stroke="currentColor" stroke-width="1.5" stroke-linecap="round" stroke-linejoin="round"/>
<path d="M9.9991 7C9.9991 7 10.4992 3 5.9991 3C1.49902 3 1.9991 7 1.9991 7M9.9991 7H1.9991M9.9991 7L9.78481 10M1.9991 7L2.21338 10M9.78481 10L9.19811 18.2137C9.08598 19.7837 7.77965 21 6.20574 21H5.79245C4.21854 21 2.91221 19.7837 2.80008 18.2137L2.21338 10M9.78481 10H2.21338" stroke="currentColor" stroke-width="1.5" stroke-linecap="round" stroke-linejoin="round"/>
</svg>
