<svg width="24" height="24" viewBox="0 0 24 24" fill="none" xmlns="http://www.w3.org/2000/svg">
<path d="M20.8 14.2222H3.65383C3.38535 14.2222 3.14955 14.4005 3.07648 14.6589L1.71969 19.4556C1.35863 20.7321 2.31762 22 3.64418 22H20.3558C21.6824 22 22.6414 20.7321 22.2803 19.4556L20.8 14.2222ZM20.8 14.2222V8.11108" stroke="currentColor" stroke-width="1.5" stroke-linecap="round" stroke-linejoin="round"/>
<path d="M3.19922 14.2222V4C3.19922 2.89543 4.09465 2 5.19922 2H11.9992" stroke="currentColor" stroke-width="1.5" stroke-linecap="round" stroke-linejoin="round"/>
<path d="M11 19L13 19" stroke="currentColor" stroke-width="1.5" stroke-linecap="round" stroke-linejoin="round"/>
<path d="M17.6562 4.82837L14.8278 7.6568" stroke="currentColor" stroke-width="1.5" stroke-linecap="round" stroke-linejoin="round"/>
<path d="M20.4847 4.82843C19.7036 5.60948 18.4373 5.60948 17.6562 4.82843C16.8752 4.04738 16.8752 2.78105 17.6562 2" stroke="currentColor" stroke-width="1.5" stroke-linecap="round" stroke-linejoin="round"/>
<path d="M14.8283 10.4853C15.6093 9.70427 15.6093 8.43794 14.8283 7.65689C14.0472 6.87584 12.7809 6.87584 11.9998 7.65689" stroke="currentColor" stroke-width="1.5" stroke-linecap="round" stroke-linejoin="round"/>
</svg>
