<svg width="24" height="24" viewBox="0 0 24 24" fill="none" xmlns="http://www.w3.org/2000/svg">
<path d="M4.9984 2.00098H2V4.99938H4.9984V2.00098Z" stroke="currentColor" stroke-width="1.5" stroke-miterlimit="1.5" stroke-linecap="round" stroke-linejoin="round"/>
<path d="M4.9984 10.502H2V13.5004H4.9984V10.502Z" stroke="currentColor" stroke-width="1.5" stroke-miterlimit="1.5" stroke-linecap="round" stroke-linejoin="round"/>
<path d="M20.498 5.00049V10.503" stroke="currentColor" stroke-width="1.5" stroke-miterlimit="1.5" stroke-linecap="round" stroke-linejoin="round"/>
<path d="M3.5 5.00049V10.503" stroke="currentColor" stroke-width="1.5" stroke-miterlimit="1.5" stroke-linecap="round" stroke-linejoin="round"/>
<path d="M20.498 13.5015V19.004" stroke="currentColor" stroke-width="1.5" stroke-miterlimit="1.5" stroke-linecap="round" stroke-linejoin="round"/>
<path d="M3.5 13.5015V19.004" stroke="currentColor" stroke-width="1.5" stroke-miterlimit="1.5" stroke-linecap="round" stroke-linejoin="round"/>
<path d="M5 20.5015H10.5009" stroke="currentColor" stroke-width="1.5" stroke-miterlimit="1.5" stroke-linecap="round" stroke-linejoin="round"/>
<path d="M5 3.50342H10.5009" stroke="currentColor" stroke-width="1.2195" stroke-miterlimit="1.5" stroke-linecap="round" stroke-linejoin="round"/>
<path d="M13.498 20.499H18.9989" stroke="currentColor" stroke-width="1.5" stroke-miterlimit="1.5" stroke-linecap="round" stroke-linejoin="round"/>
<path d="M13.498 3.50098H18.9989" stroke="currentColor" stroke-width="1.2195" stroke-miterlimit="1.5" stroke-linecap="round" stroke-linejoin="round"/>
<path d="M4.9984 19.001H2V21.9994H4.9984V19.001Z" stroke="currentColor" stroke-width="1.5" stroke-miterlimit="1.5" stroke-linecap="round" stroke-linejoin="round"/>
<path d="M21.9984 2.00195H19V5.00035H21.9984V2.00195Z" stroke="currentColor" stroke-width="1.5" stroke-miterlimit="1.5" stroke-linecap="round" stroke-linejoin="round"/>
<path d="M13.4984 2H10.5V4.9984H13.4984V2Z" stroke="currentColor" stroke-width="1.5" stroke-miterlimit="1.5" stroke-linecap="round" stroke-linejoin="round"/>
<path d="M21.9984 10.5029H19V13.5013H21.9984V10.5029Z" stroke="currentColor" stroke-width="1.5" stroke-miterlimit="1.5" stroke-linecap="round" stroke-linejoin="round"/>
<path d="M21.9984 19.002H19V22.0004H21.9984V19.002Z" stroke="currentColor" stroke-width="1.5" stroke-miterlimit="1.5" stroke-linecap="round" stroke-linejoin="round"/>
<path d="M13.4984 19H10.5V21.9984H13.4984V19Z" stroke="currentColor" stroke-width="1.5" stroke-miterlimit="1.5" stroke-linecap="round" stroke-linejoin="round"/>
</svg>
