<svg width="24" height="24" viewBox="0 0 24 24" fill="none" xmlns="http://www.w3.org/2000/svg">
<path d="M4 6V12C4 12 4 15 11 15C11.5925 15 12.1349 14.9785 12.6313 14.9392" stroke="currentColor" stroke-width="1.5" stroke-linecap="round" stroke-linejoin="round"/>
<path d="M18 6V12" stroke="currentColor" stroke-width="1.5" stroke-linecap="round" stroke-linejoin="round"/>
<path d="M11 3C18 3 18 6 18 6C18 6 18 9 11 9C4 9 4 6 4 6C4 6 4 3 11 3Z" stroke="currentColor" stroke-width="1.5" stroke-linecap="round" stroke-linejoin="round"/>
<path d="M11 21C4 21 4 18 4 18V12" stroke="currentColor" stroke-width="1.5" stroke-linecap="round" stroke-linejoin="round"/>
<path d="M22.6669 17.6667C22.0481 16.097 20.635 15 18.9906 15C17.2322 15 15.7382 16.2545 15.1973 18" stroke="currentColor" stroke-width="1.5" stroke-linecap="round" stroke-linejoin="round"/>
<path d="M20.9961 17.6666H22.6674V17.6666C22.8517 17.6666 23.001 17.5172 23.001 17.3329V15.4443" stroke="currentColor" stroke-width="1.5" stroke-linecap="round" stroke-linejoin="round"/>
<path d="M15.3331 20.3333C15.9519 21.903 17.365 23 19.0094 23C20.7678 23 22.2618 21.7455 22.8027 20" stroke="currentColor" stroke-width="1.5" stroke-linecap="round" stroke-linejoin="round"/>
<path d="M17.0039 20.3334H15.3326V20.3334C15.1483 20.3334 14.999 20.4828 14.999 20.6671V22.5557" stroke="currentColor" stroke-width="1.5" stroke-linecap="round" stroke-linejoin="round"/>
</svg>
