<svg width="24" height="24" viewBox="0 0 24 24" fill="none" xmlns="http://www.w3.org/2000/svg">
<path d="M14 11.9976C14 9.5059 11.683 7 8.85714 7C8.52241 7 7.41904 7.00001 7.14286 7.00001C4.30254 7.00001 2 9.23752 2 11.9976C2 14.376 3.70973 16.3664 6 16.8714C6.36756 16.9525 6.75006 16.9952 7.14286 16.9952" stroke="currentColor" stroke-width="1.5" stroke-linecap="round" stroke-linejoin="round"/>
<path d="M16.8571 7.00008C17.2499 7.00008 17.6324 7.04287 18 7.12392C20.2903 7.62893 22 9.61929 22 11.9977C22 13.4396 21.3716 14.739 20.3664 15.6511" stroke="currentColor" stroke-width="1.5" stroke-linecap="round" stroke-linejoin="round"/>
<path d="M9.99972 11.9975C9.99972 14.4892 12.3167 16.9951 15.1426 16.9951" stroke="currentColor" stroke-width="1.5" stroke-linecap="round" stroke-linejoin="round"/>
<path d="M18 22.2426L20.1213 20.1213M20.1213 20.1213L22.2426 18M20.1213 20.1213L18 18M20.1213 20.1213L22.2426 22.2426" stroke="currentColor" stroke-width="1.5" stroke-linecap="round" stroke-linejoin="round"/>
</svg>
