<svg width="24" height="24" viewBox="0 0 24 24" fill="none" xmlns="http://www.w3.org/2000/svg">
<path d="M20.4859 3H16.4941L16.9941 8C16.9941 8 17.9941 9 19.4941 9C20.5712 9 21.3045 8.48445 21.6324 8.1937C21.7631 8.07782 21.811 7.90091 21.7822 7.72861L21.0777 3.50136C21.0295 3.21205 20.7792 3 20.4859 3Z" stroke="currentColor" stroke-width="1.5"/>
<path d="M16.4941 3L16.9941 8C16.9941 8 15.9941 9 14.4941 9C12.9941 9 11.9941 8 11.9941 8V3H16.4941Z" stroke="currentColor" stroke-width="1.5"/>
<path d="M11.9941 3V8C11.9941 8 10.9941 9 9.49414 9C7.99414 9 6.99414 8 6.99414 8L7.49414 3H11.9941Z" stroke="currentColor" stroke-width="1.5"/>
<path d="M7.49349 3H3.50177C3.20846 3 2.95815 3.21205 2.90993 3.50136L2.20539 7.72862C2.17667 7.90091 2.2245 8.07782 2.3552 8.1937C2.68312 8.48445 3.41644 9 4.49347 9C5.99347 9 6.99349 8 6.99349 8L7.49349 3Z" stroke="currentColor" stroke-width="1.5"/>
<path d="M3 9V19C3 20.1046 3.89543 21 5 21H19C20.1046 21 21 20.1046 21 19V9" stroke="currentColor" stroke-width="1.5"/>
<path d="M14.834 21V15C14.834 13.8954 13.9386 13 12.834 13H10.834C9.72941 13 8.83398 13.8954 8.83398 15V21" stroke="currentColor" stroke-width="1.5" stroke-miterlimit="16"/>
</svg>
