<svg width="24" height="24" viewBox="0 0 24 24" fill="none" xmlns="http://www.w3.org/2000/svg">
<path d="M4.1158 14.0149C3.95761 15.3855 3.96024 16.6715 4.01235 17.6795C4.07771 18.9439 5.05643 19.9227 6.32087 19.988C7.32885 20.0401 8.6149 20.0428 9.98545 19.8846M4.1158 14.0149C4.39411 11.6036 5.17024 8.93063 7.05062 7.05025C8.931 5.16988 11.6039 4.39374 14.0153 4.11543M4.1158 14.0149L9.98545 19.8846M9.98545 19.8846C12.3968 19.6063 15.0697 18.8301 16.9501 16.9497C18.8305 15.0694 19.6066 12.3964 19.8849 9.98508M14.0153 4.11543C15.3858 3.95724 16.6719 3.95988 17.6799 4.01198C18.9443 4.07734 19.923 5.05607 19.9884 6.3205C20.0405 7.32849 20.0431 8.61453 19.8849 9.98508M14.0153 4.11543L19.8849 9.98508M9.17194 14.8284L10.5862 13.4142M10.5862 13.4142L9.17194 12M10.5862 13.4142L12.0004 14.8284M10.5862 13.4142L13.4146 10.5858M13.4146 10.5858L14.8288 9.17158M13.4146 10.5858L12.0004 9.17158M13.4146 10.5858L14.8288 12" stroke="currentColor" stroke-width="1.5" stroke-linecap="round" stroke-linejoin="round"/>
</svg>
