<svg width="24" height="24" viewBox="0 0 24 24" fill="none" xmlns="http://www.w3.org/2000/svg">
<path d="M13 6C14.1046 6 15 5.10457 15 4C15 2.89543 14.1046 2 13 2C11.8954 2 11 2.89543 11 4C11 5.10457 11.8954 6 13 6Z" stroke="currentColor" stroke-width="1.5" stroke-linecap="round" stroke-linejoin="round"/>
<path d="M10.6129 7.26691L7.30469 11.4021L11.4399 15.5374L9.3723 20.0861" stroke="currentColor" stroke-width="1.5" stroke-linecap="round" stroke-linejoin="round"/>
<path d="M4.41016 8.5075L7.79704 5.19931L10.613 7.26692L13.5077 10.5752H15.2294" stroke="currentColor" stroke-width="1.5" stroke-linecap="round" stroke-linejoin="round"/>
<path d="M6.8925 14.7103L5.65193 15.5374H2.34375" stroke="currentColor" stroke-width="1.5" stroke-linecap="round" stroke-linejoin="round"/>
<path d="M3.34375 21.5374L18.6519 19.5374V8" stroke="currentColor" stroke-width="1.5" stroke-linecap="round" stroke-linejoin="round"/>
<path d="M20.8915 6L18.651 8L17 9.5" stroke="currentColor" stroke-width="1.5" stroke-linecap="round" stroke-linejoin="round"/>
<path d="M20.891 21.7103L18.6504 19.5374" stroke="currentColor" stroke-width="1.5" stroke-linecap="round" stroke-linejoin="round"/>
</svg>
