<svg width="24" height="24" viewBox="0 0 24 24" fill="none" xmlns="http://www.w3.org/2000/svg">
<path d="M18.4008 4C18.4008 4 16.8008 7.75071 16.8008 10.8571C16.8008 11.8517 17.1416 12.684 17.6008 13.5129C18.1292 14.4669 18.8145 15.4163 19.3174 16.6035C19.7165 17.5456 20.0008 18.6374 20.0008 20" stroke="currentColor" stroke-width="1.5" stroke-linecap="round" stroke-linejoin="round"/>
<path d="M5.6 4C5.6 4 7.2 7.75071 7.2 10.8571C7.2 11.8517 6.85919 12.684 6.40001 13.5129C5.87156 14.4669 5.18633 15.4163 4.68341 16.6035C4.2843 17.5456 4 18.6374 4 20" stroke="currentColor" stroke-width="1.5" stroke-linecap="round" stroke-linejoin="round"/>
<path d="M6.40039 13.5129H17.6004" stroke="currentColor" stroke-width="1.5" stroke-linecap="round" stroke-linejoin="round"/>
<path d="M4.68359 16.6035C4.68359 16.6035 10.4002 17.7143 12.0002 20C13.6002 17.7143 19.3168 16.6035 19.3168 16.6035" stroke="currentColor" stroke-width="1.5" stroke-linecap="round" stroke-linejoin="round"/>
</svg>
