<svg width="24" height="24" viewBox="0 0 24 24" fill="none" xmlns="http://www.w3.org/2000/svg">
<path d="M11 21H4C2.89543 21 2 20.1046 2 19V5C2 3.89543 2.89543 3 4 3H20C21.1046 3 22 3.89543 22 5V12" stroke="currentColor" stroke-width="1.5" stroke-linecap="round"/>
<path d="M2 7L22 7" stroke="currentColor" stroke-width="1.5" stroke-linecap="round" stroke-linejoin="round"/>
<path d="M5 5.01L5.01 4.99889" stroke="currentColor" stroke-width="1.5" stroke-linecap="round" stroke-linejoin="round"/>
<path d="M8 5.01L8.01 4.99889" stroke="currentColor" stroke-width="1.5" stroke-linecap="round" stroke-linejoin="round"/>
<path d="M11 5.01L11.01 4.99889" stroke="currentColor" stroke-width="1.5" stroke-linecap="round" stroke-linejoin="round"/>
<path d="M21.6669 16.6667C21.0481 15.097 19.635 14 17.9906 14C16.2322 14 14.7382 15.2545 14.1973 17" stroke="currentColor" stroke-width="1.5" stroke-linecap="round" stroke-linejoin="round"/>
<path d="M19.9961 16.7723H21.401C21.7324 16.7723 22.001 16.5036 22.001 16.1723V14.55" stroke="currentColor" stroke-width="1.5" stroke-linecap="round" stroke-linejoin="round"/>
<path d="M14.3331 19.3333C14.9519 20.903 16.365 22 18.0094 22C19.7678 22 21.2618 20.7455 21.8027 19" stroke="currentColor" stroke-width="1.5" stroke-linecap="round" stroke-linejoin="round"/>
<path d="M16.0059 19.2277H14.6009C14.2695 19.2277 14.0009 19.4964 14.0009 19.8277V21.45" stroke="currentColor" stroke-width="1.5" stroke-linecap="round" stroke-linejoin="round"/>
</svg>
