<svg width="24" height="24" viewBox="0 0 24 24" fill="none" xmlns="http://www.w3.org/2000/svg">
<path d="M11 5V19C11 20.1046 11.8954 21 13 21C14.1046 21 15 20.1046 15 19L15 5C15 3.89543 14.1046 3 13 3C11.8954 3 11 3.89543 11 5Z" stroke="currentColor" stroke-width="1.5" stroke-linecap="round" stroke-linejoin="round"/>
<path d="M11.6404 3.5291L6.74811 8.17174C5.94689 8.93208 5.91374 10.198 6.67407 10.9992C7.43441 11.8004 8.70031 11.8336 9.50153 11.0732L14.3939 6.4306C15.1951 5.67026 15.2282 4.40437 14.4679 3.60314C13.7076 2.80192 12.4417 2.76877 11.6404 3.5291Z" stroke="currentColor" stroke-width="1.5" stroke-linecap="round" stroke-linejoin="round"/>
</svg>
