<svg width="24" height="24" viewBox="0 0 24 24" fill="none" xmlns="http://www.w3.org/2000/svg">
<path d="M14.5 11.5C12.75 13.3824 11 18 11 18C11 18 8.5 11.5 6 10" stroke="currentColor" stroke-width="1.5" stroke-linecap="round" stroke-linejoin="round"/>
<path d="M18.0165 7.73006L18.313 10.81C18.5054 12.8081 17.0073 14.5871 15.0093 14.7795C13.0488 14.9683 11.2728 13.5352 11.084 11.5747C10.8952 9.61421 12.3315 7.87187 14.292 7.68309L17.5759 7.36689C17.7979 7.34552 17.9951 7.50812 18.0165 7.73006Z" stroke="currentColor" stroke-width="1.5" stroke-linecap="round" stroke-linejoin="round"/>
<path d="M12 22C17.5228 22 22 17.5228 22 12C22 6.47715 17.5228 2 12 2C6.47715 2 2 6.47715 2 12C2 17.5228 6.47715 22 12 22Z" stroke="currentColor" stroke-width="1.5" stroke-linecap="round" stroke-linejoin="round"/>
</svg>
